{
  "asset": {
    "version": "2.0",
    "generator": "THREE.GLTFExporter"
  },
  "scenes": [
    {
      "name": "Scene",
      "nodes": [
        1
      ]
    }
  ],
  "scene": 0,
  "nodes": [
    {
      "matrix": [
        0.9030748627356454,
        0,
        2.0243029900125418,
        0,
        0,
        2.21660566,
        0,
        0,
        -2.024302204622673,
        0,
        0.9030745123603054,
        0,
        -168.9,
        78.6,
        99.4,
        1
      ],
      "name": "SM_Env_Cloud_11",
      "extras": {
        "name": "SM_Env_Cloud_11"
      },
      "mesh": 0
    },
    {
      "name": "Unity2Skfb.gltf",
      "children": [
        0
      ]
    }
  ],
  "bufferViews": [
    {
      "buffer": 0,
      "byteOffset": 0,
      "byteLength": 8268,
      "target": 34962,
      "byteStride": 12
    },
    {
      "buffer": 0,
      "byteOffset": 8268,
      "byteLength": 8268,
      "target": 34962,
      "byteStride": 12
    },
    {
      "buffer": 0,
      "byteOffset": 16536,
      "byteLength": 11024,
      "target": 34962,
      "byteStride": 16
    },
    {
      "buffer": 0,
      "byteOffset": 27560,
      "byteLength": 5512,
      "target": 34962,
      "byteStride": 8
    },
    {
      "buffer": 0,
      "byteOffset": 33072,
      "byteLength": 3024,
      "target": 34963
    }
  ],
  "buffers": [
    {
      "byteLength": 36096,
      "uri": "data:application/octet-stream;base64,"
    }
  ],
  "accessors": [
    {
      "bufferView": 0,
      "componentType": 5126,
      "count": 689,
      "max": [
        9.114781379699707,
        4.2631072998046875,
        3.213319778442383
      ],
      "min": [
        -9.114778518676758,
        0,
        -3.213319778442383
      ],
      "type": "VEC3"
    },
    {
      "bufferView": 1,
      "componentType": 5126,
      "count": 689,
      "max": [
        0.9796621799468994,
        0.99980229139328,
        0.9921479821205139
      ],
      "min": [
        -0.8944560885429382,
        -0.9979023933410645,
        -0.9921459555625916
      ],
      "type": "VEC3"
    },
    {
      "bufferView": 2,
      "componentType": 5126,
      "count": 689,
      "max": [
        0.9999998211860657,
        0.9999268054962158,
        0.40242964029312134,
        1
      ],
      "min": [
        -0.39601239562034607,
        -0.39724019169807434,
        -0.9999998211860657,
        -1
      ],
      "type": "VEC4"
    },
    {
      "bufferView": 3,
      "componentType": 5126,
      "count": 689,
      "max": [
        0.4851294159889221,
        0.009299758821725845
      ],
      "min": [
        0.4851294159889221,
        0.009299758821725845
      ],
      "type": "VEC2"
    },
    {
      "bufferView": 4,
      "componentType": 5125,
      "count": 756,
      "max": [
        688
      ],
      "min": [
        0
      ],
      "type": "SCALAR"
    }
  ],
  "materials": [
    {
      "pbrMetallicRoughness": {
        "metallicFactor": 0,
        "roughnessFactor": 1
      },
      "emissiveFactor": [
        1,
        1,
        1
      ],
      "name": "Cloud_Mat"
    }
  ],
  "meshes": [
    {
      "primitives": [
        {
          "mode": 4,
          "attributes": {
            "POSITION": 0,
            "NORMAL": 1,
            "TANGENT": 2,
            "TEXCOORD_0": 3
          },
          "indices": 4,
          "material": 0
        }
      ]
    }
  ]
}