{
  "asset": {
    "version": "2.0",
    "generator": "THREE.GLTFExporter"
  },
  "scenes": [
    {
      "name": "Scene",
      "nodes": [
        1
      ]
    }
  ],
  "scene": 0,
  "nodes": [
    {
      "matrix": [
        3.51949453,
        0,
        0,
        0,
        0,
        3.51949525,
        0,
        0,
        0,
        0,
        3.51949525,
        0,
        -56,
        75,
        176,
        1
      ],
      "name": "SM_Env_Cloud_12",
      "extras": {
        "name": "SM_Env_Cloud_12"
      },
      "mesh": 0
    },
    {
      "name": "Unity2Skfb.gltf",
      "children": [
        0
      ]
    }
  ],
  "bufferViews": [
    {
      "buffer": 0,
      "byteOffset": 0,
      "byteLength": 9240,
      "target": 34962,
      "byteStride": 12
    },
    {
      "buffer": 0,
      "byteOffset": 9240,
      "byteLength": 9240,
      "target": 34962,
      "byteStride": 12
    },
    {
      "buffer": 0,
      "byteOffset": 18480,
      "byteLength": 12320,
      "target": 34962,
      "byteStride": 16
    },
    {
      "buffer": 0,
      "byteOffset": 30800,
      "byteLength": 6160,
      "target": 34962,
      "byteStride": 8
    },
    {
      "buffer": 0,
      "byteOffset": 36960,
      "byteLength": 3360,
      "target": 34963
    }
  ],
  "buffers": [
    {
      "byteLength": 40320,
      "uri": "data:application/octet-stream;base64,"
    }
  ],
  "accessors": [
    {
      "bufferView": 0,
      "componentType": 5126,
      "count": 770,
      "max": [
        8.348093032836914,
        4.128233432769775,
        2.010498046875
      ],
      "min": [
        -8.348091125488281,
        0,
        -2.010496139526367
      ],
      "type": "VEC3"
    },
    {
      "bufferView": 1,
      "componentType": 5126,
      "count": 770,
      "max": [
        0.8989966511726379,
        0.9986088871955872,
        0.997338593006134
      ],
      "min": [
        -0.9289401173591614,
        -0.9980820417404175,
        -0.9957305788993835
      ],
      "type": "VEC3"
    },
    {
      "bufferView": 2,
      "componentType": 5126,
      "count": 770,
      "max": [
        0.9999957084655762,
        0.9999949336051941,
        0.4072727859020233,
        1
      ],
      "min": [
        -0.4092218577861786,
        -0.3929980397224426,
        -0.9999972581863403,
        -1
      ],
      "type": "VEC4"
    },
    {
      "bufferView": 3,
      "componentType": 5126,
      "count": 770,
      "max": [
        0.4851294159889221,
        0.009299758821725845
      ],
      "min": [
        0.4851294159889221,
        0.009299758821725845
      ],
      "type": "VEC2"
    },
    {
      "bufferView": 4,
      "componentType": 5125,
      "count": 840,
      "max": [
        769
      ],
      "min": [
        0
      ],
      "type": "SCALAR"
    }
  ],
  "materials": [
    {
      "pbrMetallicRoughness": {
        "metallicFactor": 0,
        "roughnessFactor": 1
      },
      "emissiveFactor": [
        1,
        1,
        1
      ],
      "name": "Cloud_Mat"
    }
  ],
  "meshes": [
    {
      "primitives": [
        {
          "mode": 4,
          "attributes": {
            "POSITION": 0,
            "NORMAL": 1,
            "TANGENT": 2,
            "TEXCOORD_0": 3
          },
          "indices": 4,
          "material": 0
        }
      ]
    }
  ]
}