{
  "asset": {
    "version": "2.0",
    "generator": "THREE.GLTFExporter"
  },
  "scenes": [
    {
      "name": "Scene",
      "nodes": [
        1
      ]
    }
  ],
  "scene": 0,
  "nodes": [
    {
      "matrix": [
        -2.710739640796907,
        0,
        2.1039512593596044,
        0,
        0,
        3.43143129,
        0,
        0,
        -2.103952172939792,
        0,
        -2.710740817857458,
        0,
        -92,
        84,
        -148,
        1
      ],
      "name": "SM_Env_Cloud_13",
      "extras": {
        "name": "SM_Env_Cloud_13"
      },
      "mesh": 0
    },
    {
      "name": "Unity2Skfb.gltf",
      "children": [
        0
      ]
    }
  ],
  "bufferViews": [
    {
      "buffer": 0,
      "byteOffset": 0,
      "byteLength": 14892,
      "target": 34962,
      "byteStride": 12
    },
    {
      "buffer": 0,
      "byteOffset": 14892,
      "byteLength": 14892,
      "target": 34962,
      "byteStride": 12
    },
    {
      "buffer": 0,
      "byteOffset": 29784,
      "byteLength": 19856,
      "target": 34962,
      "byteStride": 16
    },
    {
      "buffer": 0,
      "byteOffset": 49640,
      "byteLength": 9928,
      "target": 34962,
      "byteStride": 8
    },
    {
      "buffer": 0,
      "byteOffset": 59568,
      "byteLength": 5880,
      "target": 34963
    }
  ],
  "buffers": [
    {
      "byteLength": 65448,
      "uri": "data:application/octet-stream;base64,"
    }
  ],
  "accessors": [
    {
      "bufferView": 0,
      "componentType": 5126,
      "count": 1241,
      "max": [
        8.78766918182373,
        4.961077690124512,
        4.859272003173828
      ],
      "min": [
        -8.78766918182373,
        0,
        -4.859272003173828
      ],
      "type": "VEC3"
    },
    {
      "bufferView": 1,
      "componentType": 5126,
      "count": 1241,
      "max": [
        0.9663842916488647,
        0.9997667670249939,
        0.9948651194572449
      ],
      "min": [
        -0.8698018193244934,
        -0.9997428059577942,
        -0.9998162388801575
      ],
      "type": "VEC3"
    },
    {
      "bufferView": 2,
      "componentType": 5126,
      "count": 1241,
      "max": [
        0.9999988079071045,
        0.9999999403953552,
        0.38885700702667236,
        1
      ],
      "min": [
        -0.3690339922904968,
        -0.3990177512168884,
        -0.9999938011169434,
        -1
      ],
      "type": "VEC4"
    },
    {
      "bufferView": 3,
      "componentType": 5126,
      "count": 1241,
      "max": [
        0.4851294159889221,
        0.009299758821725845
      ],
      "min": [
        0.4851294159889221,
        0.009299758821725845
      ],
      "type": "VEC2"
    },
    {
      "bufferView": 4,
      "componentType": 5125,
      "count": 1470,
      "max": [
        1240
      ],
      "min": [
        0
      ],
      "type": "SCALAR"
    }
  ],
  "materials": [
    {
      "pbrMetallicRoughness": {
        "metallicFactor": 0,
        "roughnessFactor": 1
      },
      "emissiveFactor": [
        1,
        1,
        1
      ],
      "name": "Cloud_Mat"
    }
  ],
  "meshes": [
    {
      "primitives": [
        {
          "mode": 4,
          "attributes": {
            "POSITION": 0,
            "NORMAL": 1,
            "TANGENT": 2,
            "TEXCOORD_0": 3
          },
          "indices": 4,
          "material": 0
        }
      ]
    }
  ]
}